<?xml version="1.0" encoding="UTF-8" standalone="no"?>
<svg
   version="1.0"
   width="93"
   height="73"
   viewBox="0 0 97.780378 108.77483"
   preserveAspectRatio="xMidYMid"
   id="svg34"
   sodipodi:docname="logo__telephone.svg"
   inkscape:version="1.3 (0e150ed6c4, 2023-07-21)"
   xmlns:inkscape="http://www.inkscape.org/namespaces/inkscape"
   xmlns:sodipodi="http://sodipodi.sourceforge.net/DTD/sodipodi-0.dtd"
   xmlns="http://www.w3.org/2000/svg"
   xmlns:svg="http://www.w3.org/2000/svg">
  <defs
     id="defs34" />
  <sodipodi:namedview
     id="namedview34"
     pagecolor="#ffffff"
     bordercolor="#000000"
     borderopacity="0.25"
     inkscape:showpageshadow="2"
     inkscape:pageopacity="0.0"
     inkscape:pagecheckerboard="0"
     inkscape:deskcolor="#d1d1d1"
     inkscape:document-units="pt"
     inkscape:zoom="1.02125"
     inkscape:cx="218.84945"
     inkscape:cy="243.32925"
     inkscape:window-width="1920"
     inkscape:window-height="1094"
     inkscape:window-x="-11"
     inkscape:window-y="-11"
     inkscape:window-maximized="1"
     inkscape:current-layer="svg34"
     showguides="true" />
  <metadata
     id="metadata1">&#10;Created by potrace 1.16, written by Peter Selinger 2001-2019&#10;</metadata>
  <g
     transform="matrix(0.05565308,0,0,-0.03506567,-59.38787,184.09475)"
     fill="#000000"
     stroke="none"
     id="g34">
    <path
       d="m 1929.5898,5209.9353 c -13.5,-39.3226 -13.5,-40.0645 -42,-45.2581 l -28,-5.1935 21,-31.9033 21,-31.9032 -4.5,-41.5484 c -3,-25.2258 -3,-41.5483 -0.5,-41.5483 2.5,0 14.5,8.9032 26.5,19.2903 l 22,18.5484 22,-18.5484 c 31,-27.4516 33,-25.9678 27,22.258 l -4.5,41.5484 21,31.9032 20.5,31.1613 -16,5.1936 c -8.5,2.2258 -21,4.4516 -27.5,4.4516 -9.5,0 -15,8.1613 -25.5,40.8064 -7.5,22.2581 -15,40.8065 -16.5,40.8065 -1.5,0 -9,-17.8065 -16,-40.0645 z"
       id="path1"
       style="stroke-width:0.609071" />
    <path
       d="m 1753.5898,5117.1934 c -7,-22.2581 -12.5,-30.4194 -21,-30.4194 -6,0 -15,-2.2258 -19.5,-4.4516 -7,-4.4516 -6,-8.1613 5.5,-25.9678 11.5,-17.8064 13,-24.4838 10,-50.4516 -3.5,-34.129 -1.5,-36.3548 19.5,-15.5806 14.5,14.0968 15,14.0968 31.5,0 9,-8.1613 17.5,-14.8387 19,-14.8387 1,0 0.5,13.3548 -1,30.4193 -3,25.9678 -1.5,32.6452 10,50.4516 11.5,17.8065 12.5,21.5162 5.5,25.9678 -4.5,2.2258 -13.5,4.4516 -19.5,4.4516 -8,0 -14,8.1613 -21,30.4194 l -10,30.4193 z"
       id="path2"
       style="stroke-width:0.609071" />
    <path
       d="m 2117.0898,5113.4837 c -6,-19.2903 -11.5,-26.7097 -19.5,-26.7097 -6,0 -15,-2.2258 -19.5,-4.4516 -7,-4.4516 -6,-8.1613 5.5,-25.9678 11.5,-17.8064 13,-24.4838 10,-50.4516 -3.5,-32.6451 -1,-36.3548 14,-19.2903 5.5,5.9355 14.5,11.129 20.5,11.129 6,0 15,-5.1935 20.5,-11.129 15,-17.0645 17.5,-13.3548 14,19.2903 -3,25.9678 -1.5,32.6452 10,50.4516 11.5,17.8065 12.5,21.5162 5.5,25.9678 -4.5,2.2258 -13.5,4.4516 -20,4.4516 -8,0 -13,6.6774 -17.5,22.2581 -9,32.6451 -14,33.3871 -23.5,4.4516 z"
       id="path3"
       style="stroke-width:0.609071" />
    <path
       d="m 1633.0898,5008.1288 c -8,-5.1935 -30.5,-17.0645 -50,-25.9677 -62,-28.1935 -124.5,-84.5806 -167.5,-151.3548 l -17.5,-27.4516 58,45.258 c 65,51.1936 83.5,60.0968 34.5,17.0645 -57.5,-50.4516 -82,-75.6774 -74,-75.6774 4.5,0 31.5,11.871 60,26.7097 59.5,31.1613 108,75.6774 136.5,126.129 44,78.6452 45,81.6129 20,65.2903 z"
       id="path4"
       style="stroke-width:0.609071" />
    <path
       d="m 2240.5898,5014.0643 c 0,-9.6451 57.5,-104.6129 75,-124.6451 9.5,-10.3871 30,-28.1936 45,-39.3226 31,-23.7419 107.5,-62.3226 114.5,-58.6129 2.5,1.4839 -17.5,22.258 -44.5,46.7419 -26.5,24.4839 -48,46 -47,47.4839 1,1.4839 26,-16.3226 55.5,-40.0645 l 54,-42.2903 -20,31.1612 c -40.5,63.0646 -104.5,120.9355 -160,145.4194 -16.5,6.6774 -39.5,18.5484 -51,25.9677 -12,7.4194 -21.5,11.1291 -21.5,8.1613 z"
       id="path5"
       style="stroke-width:0.609071" />
    <path
       d="m 1360.5898,4905.7417 c -37.5,-36.3548 -68.5,-84.5806 -73,-112.0322 -3.5,-21.5161 5,-56.3871 17.5,-74.1936 8.5,-11.129 9,-9.6451 12,23.742 3,36.3548 17,95.7097 21.5,89.0322 1,-1.4838 0,-11.8709 -3,-23 -6,-23.7419 -6.5,-61.5806 -1,-66.7742 2,-1.4838 14.5,20.7742 27.5,49.7097 18.5,41.5484 23.5,59.3549 23.5,83.0968 0,16.3226 3.5,37.8387 8,46.7419 11,23.742 3.5,20.0323 -33,-16.3226 z"
       id="path6"
       style="stroke-width:0.609071" />
    <path
       d="m 2497.0898,4923.5482 c 4.5,-10.3871 8.5,-31.9032 8.5,-48.9677 0,-24.4839 5,-41.5484 23.5,-83.0968 13,-28.9355 25.5,-50.4516 27.5,-48.9678 5.5,5.1936 5,43.0323 -1,66.7742 -3,11.1291 -4,21.5162 -2.5,23.742 4.5,6.6774 18,-50.4516 21,-88.2903 3,-34.871 3.5,-36.3549 12,-25.2259 13,17.8065 21,52.6775 17.5,74.1936 -6,36.3548 -70,121.6774 -106,142.4516 -8.5,4.4516 -8.5,3.7097 -0.5,-12.6129 z"
       id="path7"
       style="stroke-width:0.609071" />
    <path
       d="m 1237.0898,4798.903 c -32,-37.8387 -56,-79.3871 -67,-116.4838 -11.5,-39.3226 -6,-76.4194 16,-103.1291 18.5,-23.7419 27,-25.2258 19,-2.9677 -6.5,18.5484 -3.5,100.1613 4.5,121.6774 4.5,11.129 5,5.9355 3,-23 -3,-37.8387 5,-86.0645 12.5,-73.4516 2,3.7097 10.5,28.1936 18.5,54.9032 11.5,39.3226 14.5,57.1291 13.5,95.7097 -0.5,25.9677 1,53.4194 4,60.8387 7,20.0323 3.5,17.8065 -24,-14.0968 z"
       id="path8"
       style="stroke-width:0.609071" />
    <path
       d="m 2630.0898,4812.9998 c 3,-7.4193 4.5,-34.871 4,-60.8387 -1,-41.5484 1.5,-54.9032 17,-103.129 l 18.5,-55.6452 6,22.2581 c 3.5,13.3548 5,37.8387 3,59.3548 -2,28.9355 -1.5,34.129 3,23 8,-21.5161 10.9999,-103.129 4.5,-121.6774 -3.5,-9.6452 -4,-16.3226 -1,-16.3226 10.4999,0 34.9999,38.5807 40.4999,63.8065 9,39.3225 -11,93.4838 -56.4999,155.0645 -36,48.9677 -48,59.3548 -39,34.129 z"
       id="path9"
       style="stroke-width:0.609071" />
    <path
       d="m 1408.0898,4768.4837 c -19,-8.1613 -37,-14.8387 -40,-15.5807 -2.5,0 -1.5,-3.7096 2.5,-7.4193 4,-3.7097 22,-7.4194 40,-8.1613 l 32.5,-0.7419 -22.5,-7.4194 c -12.5,-3.7097 -35.5,-5.1935 -51,-3.7097 -16,1.4839 -29,0 -29,-2.9677 0,-2.9678 10.5,-12.6129 23,-21.5161 32.5,-23.742 60,-17.8065 122.5,26.7096 l 51.5,36.3549 -25,5.1935 c -65.5,13.3549 -70,13.3549 -104.5,-0.7419 z"
       id="path10"
       style="stroke-width:0.609071" />
    <path
       d="m 2408.0898,4775.903 c -5.5,-3.7096 -20,-7.4193 -32.5,-8.1613 l -22.5,-0.7419 51.5,-37.8387 c 62.5,-46 90,-52.6774 123,-28.1935 12.5,8.9032 23,18.5483 23,20.7742 0,2.9677 -13,4.4516 -28.5,2.9677 -16,-0.7419 -39,0.7419 -51.5,5.1935 l -22.5,6.6775 32.5,0.7419 c 45,1.4839 51.5,9.6452 19,25.2258 -33.5,15.5806 -78.5,21.5161 -91.5,13.3548 z"
       id="path11"
       style="stroke-width:0.609071" />
    <path
       d="m 1926.5898,4726.1934 c -14.5,-14.8387 -15,-50.4516 -0.5,-64.5484 l 10,-11.1291 -15.5,-98.6774 c -9,-54.9032 -16.5,-100.1613 -17,-101.6451 -1,-0.742 -16,39.3226 -34,89.0322 -30,82.3549 -32.5,92 -26,105.3549 9.5,20.7742 9,31.1613 -3,48.9677 -23.5,34.871 -64,1.4839 -51,-41.5484 3.5,-9.6451 11,-20.7742 17.5,-24.4839 11.5,-6.6774 12,-11.129 15.5,-101.6451 1.5,-51.9355 2.5,-94.9678 2,-96.4516 -1,-0.742 -24,28.9355 -51.5,66.7742 -48.5,67.5161 -49.5,69.7419 -43.5,89.0322 11.5,37.8387 -15,72.7097 -41.5,54.9032 -24.5,-16.3225 -22,-60.0967 4.5,-76.4193 14,-8.9032 20,-23 47.5,-112.7742 17.5,-56.3871 34.5,-109.8064 38.5,-118.7097 l 7,-17.0645 h 162 161.5 l 36.5,119.4516 c 32.5,105.3549 39,120.1936 53,129.0968 26.5,16.3226 29,60.0968 4.5,76.4193 -26.5,17.8065 -53,-17.0645 -41.5,-54.9032 6,-19.2903 5,-21.5161 -43.5,-89.0322 -27.5,-37.8387 -50.5,-67.5162 -51.5,-66.0323 -1,0.7419 0,44.5161 2,96.4516 3.5,89.0323 4,94.2258 15,100.1613 11,6.6774 22,28.1936 22,43.7742 0,16.3226 -20.5,37.8387 -35,37.8387 -10.5,0 -17.5,-5.9355 -23.5,-19.2903 -8,-18.5484 -8,-21.5161 -0.5,-40.8065 8,-20.7742 8,-22.258 -25,-110.5483 l -33.5,-89.0323 -16.5,100.9032 c -16.5,100.9032 -16.5,101.6452 -6,112.0323 20.5,21.5161 6.5,76.4193 -20,76.4193 -4.5,0 -13,-5.1935 -19,-11.8709 z"
       id="path12"
       style="stroke-width:0.609071" />
    <path
       d="m 1106.0898,4640.8708 c -51.5,-88.2903 -68.5,-155.8065 -52,-204.7742 8,-24.4839 31,-54.9032 47.5,-63.0645 4,-2.2258 2.5,-10.3871 -4.5,-25.2258 -11.5,-23.742 -45.5,-125.3871 -35.5,-105.3549 3.5,7.4194 16,38.5807 28,70.4839 33.5,89.7742 31,86.8065 58,73.4516 52.5,-26.7097 92,-5.9355 151.5,80.871 21.5,31.1613 34,53.4193 28,48.9677 -6,-4.4516 -29,-8.1613 -51.5,-8.1613 -36,0 -44,-2.9677 -74,-25.2258 -18.5,-14.0967 -38,-30.4193 -43.5,-37.0967 -9.5,-11.1291 -9,-11.1291 10,-11.1291 11,0 30,2.9678 42,7.4194 12,3.7097 23,5.9355 24,3.7097 3.5,-5.1936 -57,-31.9033 -86,-37.8387 l -24,-5.9355 14,28.9354 13.5,28.9355 -16,-25.9677 c -8.5,-14.0968 -14.5,-20.0323 -13,-12.6129 1.5,6.6774 6.5,39.3226 11,72.7097 7.5,55.6451 7.5,61.5806 -0.5,93.4838 -5.5,20.7742 -7.5,43.7742 -6,62.3226 1.5,15.5807 2,28.9355 2,28.9355 -0.5,0 -11,-17.0645 -23,-37.8387 z"
       id="path13"
       style="stroke-width:0.609071" />
    <path
       d="m 2764.0897,4649.774 c 1.5,-18.5484 -0.5,-41.5484 -6,-62.3226 -8,-31.9032 -8,-37.8387 -0.5,-93.4838 4.5,-33.3871 9.5,-66.0323 11.5,-72.7097 4,-17.8065 -1,-10.3871 -35,54.9032 -15.5,28.9355 -31,55.6452 -34.5,58.6129 -3.5,2.9678 -0.5,-4.4516 6.5,-16.3226 24.5,-40.8064 56,-107.5806 52.5,-112.0322 -4,-5.9355 -69.9999,17.0645 -90.4999,31.9032 -13,8.9032 -13.5,10.3871 -2.5,6.6774 7,-2.2258 26.9999,-5.9355 44.9999,-8.1613 l 32.5,-4.4516 -12.5,14.8387 c -6.5,8.1613 -26,25.2258 -42.9999,37.8387 -27,20.0323 -36.5,23 -72,23 -22.5,0 -45.5,3.7097 -51.5,8.1613 -6,4.4516 6.5,-17.8064 28,-48.9677 59.5,-86.8065 99,-107.5807 151.4999,-80.871 12.5,5.9355 25,8.9032 27,5.1936 2,-2.9678 15.5,-35.6129 29.5,-72.7097 35.5,-94.2258 40.5,-101.6452 11,-17.0645 l -25,71.2258 15,8.9032 c 18.5,11.871 37.5,45.2581 42,73.4516 6.5,44.5161 -16,115 -61,189.1936 l -20.5,34.8709 z"
       id="path14"
       style="stroke-width:0.609071" />
    <path
       d="m 1300.5898,4641.6127 c -23.5,-11.8709 -43,-22.258 -43.5,-22.258 -1,0 -1.5,-3.7097 -1.5,-8.1613 0,-5.9355 12,-7.4194 41.5,-5.1936 40.5,3.7097 40.5,3.7097 18.5,-5.9355 -12,-5.9354 -37,-11.129 -55.5,-11.8709 -35.5,-2.2258 -38.5,-8.9033 -11.5,-25.2258 27.5,-17.0646 68.5,-13.3549 98.5,8.9032 23.5,17.8064 83.5,76.4193 83.5,81.6129 0,0.7419 -7.5,1.4839 -16,0.7419 -9,0 -29,1.4839 -44,4.4516 -23.5,5.1936 -33.5,2.2258 -70,-17.0645 z"
       id="path15"
       style="stroke-width:0.609071" />
    <path
       d="m 2503.0898,4656.4514 c -11,-3.7096 -25.5,-4.4516 -32.5,-2.2258 -12.5,3.7097 -12,3.7097 2.5,-14.8387 25,-31.9032 87,-80.871 108.5,-86.8064 24.5,-6.6775 66,6.6774 78,25.9677 5,7.4194 5.5,11.129 2,7.4194 -7,-5.1936 -89,8.9032 -100,18.5483 -4,2.9678 11.5,3.7097 33.5,1.4839 60.5,-5.1935 51.5,12.6129 -24,46 -29.5,12.6129 -37.5,13.3549 -68,4.4516 z"
       id="path16"
       style="stroke-width:0.609071" />
    <path
       d="m 973.08981,4394.5482 c -19,-55.6451 -25,-82.3548 -26.5,-116.4839 l -2,-44.5161 h 23 c 25,0 25,-1.4839 14.5,54.9032 -1.5,8.9033 -0.5,11.871 3,8.9033 3,-2.9678 5.5,-9.6452 5.5,-15.5807 0,-5.9355 2.5,-19.2903 6,-29.6774 4.49999,-14.8387 8.99999,-18.5484 22.99999,-18.5484 h 17.5 l -3.5,53.4194 c -2.5,40.8064 -6.5,61.5806 -16.5,83.8387 -7.5,16.3226 -15,44.5161 -16.5,63.0645 l -2.99999,33.3871 z"
       id="path17"
       style="stroke-width:0.609071" />
    <path
       d="m 2890.5897,4438.3224 c 0,-19.2903 -5,-40.8064 -15,-63.8064 -11.5,-25.9678 -15.5,-46.742 -18,-87.5484 l -3.5,-53.4194 h 17.5 c 14,0 18.5,3.7097 23,18.5484 3.5,10.3871 6,23.7419 6,29.6774 0,5.9355 2.5,12.6129 5,14.8387 5,4.4516 4,-9.6451 -3.5,-49.7096 -2,-11.1291 1.5,-13.3549 21.5,-13.3549 h 23 l -2,43.0323 c -2,41.5484 -25.5,130.5806 -46.5,174.3548 -7.5,15.5807 -7.5,14.8387 -7.5,-12.6129 z"
       id="path18"
       style="stroke-width:0.609071" />
    <path
       d="m 1225.5898,4325.5482 c -7,-5.1935 -24.5,-10.3871 -39.5,-10.3871 -21.5,0 -33.5,-5.1935 -57.5,-25.2258 -17,-14.0968 -35,-32.6451 -40.5,-41.5484 l -10,-16.3226 32.5,2.9678 c 18,1.4839 37,5.9355 42.5,8.9032 8,4.4516 8.5,4.4516 2.5,-2.2258 -6,-5.9355 -1.5,-8.1613 17.5,-8.1613 h 25 l 24,51.9355 c 24.5,53.4194 25,57.871 3.5,40.0645 z"
       id="path19"
       style="stroke-width:0.609071" />
    <path
       d="m 2669.0898,4285.4837 23.9999,-51.9355 h 25 c 19,0 23.5,2.2258 17.5,8.1613 -6,6.6774 -5.5,6.6774 2.5,2.2258 5.5,-2.9677 24.5,-6.6774 42.5,-8.1613 l 32.5,-2.2258 -18.5,24.4839 c -28,37.8387 -58.5,57.129 -89.5,57.129 -14.9999,0 -33.4999,5.1936 -41.4999,11.129 -7.5,5.9355 -15,11.1291 -16.5,11.1291 -1,0 9,-23 22,-51.9355 z"
       id="path20"
       style="stroke-width:0.609071" />
    <path
       d="m 1781.5898,4272.8708 1.5,-20.7742 h 162.5 162.5 l 1.5,20.7742 1.5,20.0323 h -165.5 -165.5 z"
       id="path21"
       style="stroke-width:0.609071" />
    <path
       d="m 779.58984,4067.3547 c -40,-21.5162 -65,-60.8387 -73.5,-115.742 -3,-18.5483 -5.5,-122.4193 -5.5,-230.7419 0,-221.0968 3.5,-253 32,-296.7742 41,-63.0645 111.5,-68.258 141.5,-11.129 l 10.5,19.2903 5.5,-22.258 4.99999,-23 36.49998,2.2258 36.5,2.2258 v 178.0645 178.0645 h -67.49998 -67.49999 l -1.5,-49.7097 c -1.5,-49.7097 -1.5,-50.4516 11.5,-50.4516 h 12.5 v -69.7419 c 0,-54.1613 -2,-72.7097 -8,-81.6129 -9.5,-14.8387 -14.5,-14.8387 -24,0 -7,9.6451 -8,40.8064 -8,228.5161 0,177.3226 1.5,219.6129 7,231.4839 6,11.129 9,12.6129 16.5,5.9354 7.5,-6.6774 9.5,-21.5161 11.5,-77.1613 l 2.5,-69.7419 54.99997,2.2258 c 30.5,0.742 56.5,3.7097 58.5,6.6774 6,8.9033 -4.5,138.742 -13,163.2258 -11.5,32.6452 -41.5,66.7742 -69.99997,79.3871 -30.5,13.3549 -79,14.0968 -104,0.742 z"
       id="path22"
       style="stroke-width:0.609071" />
    <path
       d="m 1011.5898,3779.4837 c 1.5,-278.2258 1.5,-284.9032 12.5,-315.3226 21.5,-59.3548 65,-91.258 124,-91.258 39,0 71.5,16.3226 92,46 33.5,48.9677 33,39.3226 34.5,356.8709 l 1.5,287.1291 h -57.5 -58 v -276.742 c 0,-212.9354 -1.5,-279.7096 -6.5,-290.0967 -8,-15.5807 -21.5,-8.9033 -25.5,12.6129 -1.5,8.9032 -3,137.258 -3,285.6451 v 268.5807 h -58 -57.5 z"
       id="path23"
       style="stroke-width:0.609071" />
    <path
       d="m 1326.0898,3757.2256 c -14,-168.4193 -27.5,-320.5161 -29,-337.5806 l -3,-31.9032 h 61 60.5 v 25.2258 c 0,13.3548 1.5,40.0645 3,59.3548 3.5,33.3871 3.5,34.1291 22,34.1291 22,0 25,-8.9033 25,-75.6775 v -43.0322 h 60 c 33,0 60,1.4839 60,3.7097 0,1.4838 -14.5,152.0967 -32.5,334.6129 -18,182.5161 -32.5,333.129 -32.5,334.6129 0,0.7419 -38,2.2258 -84,2.2258 h -84 z m 130,-102.387 c 2,-25.2258 1.5,-25.9678 -16.5,-28.1936 -17.5,-2.2258 -19,-0.7419 -19,17.8065 0,29.6774 15,220.3548 18.5,232.9677 1.5,5.9355 6,-35.6129 9.5,-92.7419 3,-57.1291 6.5,-115.742 7.5,-129.8387 z"
       id="path24"
       style="stroke-width:0.609071" />
    <path
       d="m 1605.5898,3725.3224 v -337.5806 h 57.5 57.5 v 152.0968 c 0,145.4193 0.5,152.0967 9.5,152.0967 23.5,0 25.5,-14.0967 25.5,-163.9677 v -140.2258 h 55.5 55.5 l -2,139.4839 c -2,158.7741 -5.5,175.8387 -41.5,201.0645 -11.5,8.9032 -16,14.8387 -11,15.5806 17,0 37,21.5161 44,46 4,14.8387 7,51.9355 7,91.2581 0,56.3871 -2,72.7096 -12.5,103.129 -23.5,69 -42,77.9032 -161,78.6452 h -84 z"
       id="path25"
       style="stroke-width:0.609071" />
    <path
       d="m 1940.5898,4058.4514 c 0,-2.9677 -11,-132.0645 -25,-287.8709 -13.5,-155.0645 -26,-304.9355 -28,-332.3871 l -3.5,-50.4516 h 58 57.5 l 3,20.7742 c 1.5,11.129 3.5,37.8387 4,59.3548 l 1,38.5807 h 21 21 l 3.5,-59.3549 3.5,-59.3548 h 60 c 46,0 59.5,2.2258 57.5,9.6452 -1,4.4516 -16.5,156.5483 -34,337.5806 l -31.5,327.9355 h -84 c -46,0 -84,-2.2258 -84,-4.4517 z m 97,-289.3548 c 10.5,-158.0322 11.5,-145.4193 -10.5,-142.4516 -17,2.2258 -19,4.4516 -18,20.7742 3,52.6774 18,244.8387 19,243.3548 1,-1.4838 5,-56.3871 9.5,-121.6774 z"
       id="path26"
       style="stroke-width:0.609071" />
    <path
       d="m 2195.5898,3725.3224 v -337.5806 h 47.5 47.5 l 1,146.1613 1.5,146.9032 19.5,-100.1613 c 10.5,-54.9032 23.5,-120.9355 29,-146.1613 l 9.5,-46.7419 h 49.5 50 v 337.5806 337.5807 h -47.5 -47.5 l -0.5,-146.1613 -0.5,-146.9032 -32,146.9032 -32.5,146.1613 h -47 -47.5 z"
       id="path27"
       style="stroke-width:0.609071" />
    <path
       d="m 2480.5898,3996.1289 v -66.7742 h 32.5 32.5 v -270.8065 -270.8064 h 57.5 57.5 l 1,269.3226 1.5,268.5806 33.9999,2.2258 33.5,2.2258 v 66.0323 66.7742 h -124.9999 -125 z"
       id="path28"
       style="stroke-width:0.609071" />
    <path
       d="m 2755.5897,3725.3224 v -337.5806 h 100 100 v 66.7742 66.0322 l -41,2.2258 -41.5,2.2258 -1.5,72.7097 -1.5,71.9678 h 38 37.5 v 66.7742 66.7741 h -37.5 -38 l 1.5,61.5807 1.5,60.8387 39,2.2258 38.5,2.2258 v 66.0323 66.7742 h -97.5 -97.5 z"
       id="path29"
       style="stroke-width:0.609071" />
    <path
       d="m 2990.5897,3725.3224 v -337.5806 h 100 100 v 66.7742 66.7742 h -42.5 -42.5 v 74.1935 74.1936 h 37.5 38 l -1.5,65.2903 -1.5,64.5484 -36,2.2258 -36.5,2.2258 v 62.3226 63.0645 h 40 40 v 66.7742 66.7742 h -97.5 -97.5 z"
       id="path30"
       style="stroke-width:0.609071" />
    <path
       d="m 870.58984,3232.6773 c 0,-3.7097 5,-22.2581 10.5,-42.2903 27.99997,-94.2258 79.99997,-185.4839 121.99996,-215.1613 32,-22.2581 85,-24.4839 115.5,-3.7097 l 20.5,14.0968 25.5,-49.7097 c 14,-26.7097 40.5,-73.4516 58.5,-102.3871 l 33,-54.1613 -77,56.3871 c -73.5,53.4194 -79.5,56.3871 -125.5,62.3226 -48.5,7.4193 -70.49999,18.5484 -92.49999,47.4839 -6.5,8.1612 -10,10.3871 -8,4.4516 36,-95.7097 112.49999,-212.9355 164.99999,-252.2581 55.5,-41.5484 116.5,-40.0645 163.5,4.4516 l 19,17.8065 51.5,-57.871 c 28,-31.9032 67.5,-72.7097 87.5,-90.5161 20,-17.0645 35.5,-32.6452 34.5,-34.1291 -1,-1.4838 -13,2.2259 -26.5,8.1613 -13.5,5.9355 -55.5,20.7742 -93,33.3871 -63.5,20.7742 -71,22.2581 -105,14.0968 -45,-10.3871 -84,-5.1935 -108,14.8387 -15.5,13.3549 -13.5,8.9032 13.5,-28.9355 39.5,-54.9032 90,-105.3548 143,-140.9677 49,-34.129 77.5,-44.5161 119,-44.5161 44,0 75.5,17.8064 104,58.6129 l 24,34.129 31.5,-20.7742 c 51,-34.129 141,-78.6451 221.5,-109.0645 41.5,-15.5806 71.5,-30.4194 67.5,-31.9032 -27.5,-11.871 -102,-54.9033 -125,-71.9678 -31,-23.7419 -70,-63.8064 -70,-72.7096 0,-3.7097 8,-11.871 18.5,-19.2904 18,-12.6129 18,-12.6129 38.5,8.9033 46,48.9677 185,135.0322 218,135.0322 33,0 172,-86.0645 217.5,-134.2903 l 21,-22.2581 18,12.6129 c 10.5,7.4194 18.5,15.5807 18.5,19.2904 0,8.9032 -39,48.9677 -70,72.7096 -23,17.0645 -96,59.3549 -125,71.9678 -4,2.2258 22.5,14.8387 59,28.1935 80,30.4194 146.5,62.3226 212.5,101.6452 l 48.5,29.6774 22,-29.6774 c 12,-16.3226 29.5,-35.6129 38.5,-43.0323 22,-17.0645 85.5,-22.258 120.5,-10.3871 61,20.7742 175.4999,120.9355 223.9999,196.6129 l 17.5,27.4516 -18.5,-16.3225 c -23.5,-20.0323 -62.4999,-25.9678 -106.4999,-15.5807 -31,6.6774 -42,5.9355 -95,-10.3871 -33,-10.3871 -75.5,-25.2258 -94.5,-33.3871 -19,-8.1613 -35.5,-13.3548 -36.5,-11.871 -1,1.4839 14.5,17.0646 34.5,34.1291 20,17.8064 59.5,58.6129 88,90.5161 l 51.5,58.6129 14.5,-15.5806 c 36.5,-38.5807 99.4999,-48.9678 144.9999,-23 52,29.6774 121.5,120.1935 164,214.4193 28.5,63.0645 29,65.2903 10.5,44.5161 -28.5,-31.9032 -38,-36.3548 -87.5,-42.2903 -46,-5.9355 -50.5,-8.1613 -125.5,-63.0645 l -77.4999,-56.3871 33.5,53.4194 c 18,29.6774 44.4999,76.4193 58.4999,103.129 l 25.5,49.7097 20.5,-14.0968 c 30.5,-20.7742 83.5,-18.5484 115.5,3.7097 31.5,21.5161 66.5,74.1935 95,141.7096 23.5,56.3871 40.5,112.7742 36,120.1936 -2,2.2258 -14,-2.2258 -27,-11.129 -13,-8.1613 -36.5,-18.5484 -52.5,-23 -33.5,-10.3871 -64.5,-41.5484 -151,-148.3871 -5,-6.6775 5.5,30.4193 24,81.6129 30,85.3225 34,103.129 22,103.129 -2,0 -14,-30.4194 -26.5,-66.7742 -12.5,-36.3548 -24,-66.7742 -25.5,-66.7742 -1.5,0 -1.5,20.0323 0.5,43.7742 2,24.4839 2,54.9032 0,67.5161 -3.5,22.2581 -4,23 -30.5,21.5162 -16.5,-1.4839 -27,-5.1936 -27,-10.3871 0,-16.3226 30,-97.1936 42.5,-115 12,-16.3226 12,-17.8065 4,-37.8387 -5,-11.871 -10,-21.5162 -12,-21.5162 -5,0 -32.5,100.9033 -39.5,146.9033 l -6,38.5806 h -24.4999 -24.5 v -34.871 c 0,-47.4838 20,-98.6774 51.9999,-132.0645 13.5,-14.0968 27.5,-25.9677 31.5,-25.9677 3.5,0 6.5,-1.4839 6.5,-3.7097 0,-11.871 -104.9999,-206.2581 -108.4999,-201.8064 -0.5,1.4838 4.5,25.2258 11,54.1612 8.5,35.6129 12.5,67.5162 12.5,103.871 0,50.4516 -1,54.9032 -22.5,103.871 -16,35.6129 -22.5,58.6129 -22.5,77.1613 v 25.9677 l -17.5,-40.8064 c -10,-22.2581 -28,-71.2259 -41,-109.0646 -38,-112.7742 -34.5,-175.8387 13.5,-242.6129 l 24.5,-34.129 -27.5,-34.871 c -28.5,-36.3548 -101.5,-115.7419 -127.5,-138.7419 -13,-11.129 -11.5,-6.6774 12.5,43.0323 27.5,57.129 45,117.2258 44,154.3225 0,11.1291 -5.5,40.8065 -11.5,65.2904 -9.5,38.5806 -10,49.7096 -5.5,71.9677 3,15.5807 5,28.1936 4.5,29.6774 -3.5,4.4516 -113,-162.4838 -127.5,-194.3871 -31,-69 -32.5,-123.9032 -5.5,-195.129 l 14.5,-38.5806 -28.5,-18.5484 c -80,-52.6774 -185.5,-98.6774 -350.5,-152.8387 l -51,-16.3226 -51.5,16.3226 c -163.5,54.1613 -272.5,100.9032 -352.5,153.5806 l -26.5,17.0645 16.5,43.0323 c 22.5,58.6129 23,114.258 2,171.3871 -12.5,33.3871 -132,221.0967 -136.5,214.4193 -0.5,-1.4838 1.5,-13.3548 4.5,-25.9677 5.5,-20.7742 4.5,-31.1613 -5.5,-74.9355 -6.5,-28.1935 -11.5,-59.3548 -11.5,-69.7419 0,-35.6129 17.5,-94.9678 44,-150.6129 24,-49.7097 25.5,-54.1613 12.5,-43.0323 -26,23 -99.5,102.3871 -127.5,138.7419 l -27.5,34.871 22,30.4194 c 50.5,69 54.5,132.0645 16,246.3225 -13,37.0968 -31,86.8065 -41,109.0646 l -17.5,40.8064 v -25.9677 c 0,-18.5484 -6.5,-41.5484 -22.5,-77.1613 -21.5,-48.9678 -22.5,-53.4194 -22.5,-103.871 0,-36.3548 4,-68.2581 12.5,-103.871 6.5,-28.9354 11.5,-52.6774 11,-53.4193 -2,-2.9678 -69,114.2581 -88.5,155.8064 -11.5,23.742 -20,43.7742 -19,44.5162 58.5,38.5806 91,98.6774 88,162.4838 l -1.5,31.1613 -23,2.2258 -23.5,2.2258 -6,-39.3225 c -6.5,-42.2904 -34,-146.9033 -38.5,-146.9033 -5,0 -16,25.2258 -16.5,36.3549 0,5.1935 6,20.0322 13.5,33.3871 13,23 36.5,89.7742 36.5,105.3548 0,4.4516 -11.5,8.9032 -27,9.6452 -26.5,1.4838 -27,0.7419 -30.5,-21.5162 -2,-12.6129 -2,-43.7742 0,-69 l 3,-46 -10,24.4839 c -5.5,12.6129 -17,43.7742 -25.5,68.2581 -14.5,43.0322 -19.5,50.4516 -26.5,39.3225 -2,-2.2258 11,-45.9999 29,-97.1935 32,-89.0323 32.5,-91.2581 16.5,-71.9677 -75,91.258 -114.49999,129.0967 -142.49999,137.258 -16,5.1936 -39,14.8387 -50.99998,23 -23.99999,15.5807 -30.49999,17.0645 -30.49999,7.4194 z"
       id="path31"
       style="stroke-width:0.609071" />
    <path
       d="m 1627.0898,3108.7741 c 1.5,-8.1613 4,-27.4517 6,-43.7742 2.5,-27.4516 1.5,-31.9033 -15,-55.6452 -21,-30.4194 -22,-37.0968 -3.5,-37.0968 27.5,0 36.5,-8.9032 49.5,-47.4838 l 13,-37.8387 12.5,38.5806 c 12.5,37.8387 13.5,38.5806 39.5,43.7742 14.5,2.2258 26.5,6.6774 26.5,9.6451 0,2.9678 -8,16.3226 -17.5,30.4194 -17.5,25.2258 -17.5,25.9677 -14.5,69 l 3.5,44.5161 -24,-20.7742 -23.5,-20.7742 -23,17.8065 c -13,9.6452 -25.5,18.5484 -28,20.0323 -2,2.2258 -3,-2.9678 -1.5,-10.3871 z"
       id="path32"
       style="stroke-width:0.609071" />
    <path
       d="m 2166.0898,3093.1934 c 7,-46 5.5,-54.1613 -16,-82.3548 l -20.5,-27.4516 29,-7.4194 c 28.5,-7.4193 30,-8.9032 40.5,-43.0322 6.5,-19.2904 12.5,-34.871 14,-34.871 1,0 8,16.3226 14.5,36.3548 12.5,35.6129 13,36.3549 41,41.5484 l 28,5.1936 -20.5,31.1612 -21,31.9033 4.5,38.5806 c 2.5,20.7742 3.5,37.8387 1.5,37.8387 -1.5,0 -12.5,-7.4193 -24,-16.3226 l -21,-16.3225 -23,16.3225 c -30.5,21.5162 -32,20.7742 -27,-11.129 z"
       id="path33"
       style="stroke-width:0.609071" />
    <path
       d="m 1877.5898,3026.4192 c 11,-94.9677 11.5,-91.258 -19,-133.5484 -15.5,-21.5161 -28,-40.8064 -28,-42.2903 0,-1.4839 13,-5.1935 29,-8.1613 50,-8.9032 50,-8.1613 70.5,-68.258 l 18.5,-55.6452 17,55.6452 17,56.3871 31,7.4193 c 16.5,4.4516 35.5,8.1613 42.5,8.1613 10.5,0 8.5,5.1936 -18.5,46.7419 l -30.5,46 6.5,54.9033 c 3.5,30.4193 6,57.129 4.5,58.6129 -1,1.4838 -17.5,-9.6452 -36.5,-25.2258 l -34.5,-28.1936 -33.5,27.4516 c -18.5,14.8387 -34.5,27.4516 -36.5,27.4516 -1.5,0 -1.5,-12.6129 0.5,-27.4516 z"
       id="path34"
       style="stroke-width:0.609071" />
  </g>
</svg>
